<svg height="32" viewBox="0 0 32 32" width="32" xmlns="http://www.w3.org/2000/svg"><path d="m29.86 8c-.224-.385-.532-.724-.871-.921l-11.755-6.787c-.677-.391-1.787-.391-2.464 0l-11.755 6.787c-.677.391-1.235 1.353-1.235 2.135v13.573c0 .391.14.828.364 1.213.219.385.532.724.871.917l11.749 6.791c.683.391 1.787.391 2.464 0l11.755-6.791c.339-.193.647-.532.871-.917s.359-.823.359-1.213v-13.573c.005-.391-.135-.828-.353-1.213zm-13.86 17.479c-5.229 0-9.479-4.249-9.479-9.479s4.249-9.479 9.479-9.479c3.385.005 6.511 1.812 8.208 4.733l-4.104 2.376c-.849-1.464-2.411-2.365-4.104-2.371-2.615 0-4.74 2.125-4.74 4.74s2.125 4.74 4.74 4.74c1.693-.005 3.255-.907 4.104-2.371l4.104 2.376c-1.697 2.921-4.823 4.728-8.208 4.733zm9.479-8.952h-1.052v1.052h-1.057v-1.052h-1.052v-1.053h1.052v-1.052h1.057v1.052h1.052zm3.948 0h-1.052v1.052h-1.052v-1.052h-1.052v-1.053h1.052v-1.052h1.052v1.052h1.052z"/></svg>